HIERARCHY
ROOT Hips
{
	OFFSET 0.000000 83.214638 0.000000
	CHANNELS 6 Xposition Yposition Zposition Xrotation Yrotation Zrotation
	JOINT Pelvis
	{
		OFFSET 0.000000 0.000000 0.000000
		CHANNELS 3 Xrotation Yrotation Zrotation
		JOINT LeftUpLeg
		{
			OFFSET 8.479700 -4.795502 -0.379100
			CHANNELS 3 Xrotation Yrotation Zrotation
			JOINT LeftLeg
			{
				OFFSET 0.024144 -32.555107 0.112900
				CHANNELS 3 Xrotation Yrotation Zrotation
				JOINT LeftFoot
				{
					OFFSET -0.024144 -32.638630 -3.012600
					CHANNELS 3 Xrotation Yrotation Zrotation
					JOINT LeftToeBase
					{
						OFFSET 0.970200 -13.225400 11.864200
						CHANNELS 3 Xrotation Yrotation Zrotation
						End Site
						{
							OFFSET 0.000000 12.319262 0.000000
						}
					}
					JOINT LFootTongue
					{
						OFFSET 1.142400 -1.059800 6.665200
						CHANNELS 3 Xrotation Yrotation Zrotation
						End Site
						{
							OFFSET 0.000000 12.319262 0.000000
						}
					}
				}
				JOINT LeftPantLeg
				{
					OFFSET 0.918482 -16.533964 -2.284700
					CHANNELS 3 Xrotation Yrotation Zrotation
					End Site
					{
						OFFSET 0.350399 24.744368 0.000000
					}
				}
			}
		}
		JOINT RightUpLeg
		{
			OFFSET -8.479700 -4.795502 -0.379100
			CHANNELS 3 Xrotation Yrotation Zrotation
			JOINT RightLeg
			{
				OFFSET -0.023144 -32.555092 0.112900
				CHANNELS 3 Xrotation Yrotation Zrotation
				JOINT RightFoot
				{
					OFFSET 0.023144 -32.638641 -3.012700
					CHANNELS 3 Xrotation Yrotation Zrotation
					JOINT RightToeBase
					{
						OFFSET -0.970200 -13.225400 11.864200
						CHANNELS 3 Xrotation Yrotation Zrotation
						End Site
						{
							OFFSET 0.000000 12.319244 0.000000
						}
					}
					JOINT RFootTongue
					{
						OFFSET -1.142200 -1.059800 6.665200
						CHANNELS 3 Xrotation Yrotation Zrotation
						End Site
						{
							OFFSET 0.000000 12.319243 0.000000
						}
					}
				}
				JOINT RightPantLeg
				{
					OFFSET -0.919482 -16.533978 -2.284800
					CHANNELS 3 Xrotation Yrotation Zrotation
					End Site
					{
						OFFSET -0.350400 24.744419 0.000000
					}
				}
			}
		}
	}
	JOINT Spine
	{
		OFFSET 0.000000 7.722000 1.166200
		CHANNELS 3 Xrotation Yrotation Zrotation
		JOINT Spine1
		{
			OFFSET 0.000000 12.024101 0.248800
			CHANNELS 3 Xrotation Yrotation Zrotation
			JOINT Spine2
			{
				OFFSET 0.000000 11.502998 -0.491200
				CHANNELS 3 Xrotation Yrotation Zrotation
				JOINT Neck
				{
					OFFSET 0.000000 18.430702 -3.123100
					CHANNELS 3 Xrotation Yrotation Zrotation
					JOINT Head
					{
						OFFSET 0.000000 9.051102 1.034000
						CHANNELS 3 Xrotation Yrotation Zrotation
						JOINT HairB
						{
							OFFSET 0.208400 24.786102 24.822300
							CHANNELS 3 Xrotation Yrotation Zrotation
							End Site
							{
								OFFSET 0.000000 32.263779 0.000000
							}
						}
						JOINT HairA
						{
							OFFSET -7.081100 24.428299 23.196600
							CHANNELS 3 Xrotation Yrotation Zrotation
							End Site
							{
								OFFSET 0.000000 32.263779 0.000000
							}
						}
						JOINT Hat
						{
							OFFSET 16.728800 15.048294 -15.439601
							CHANNELS 3 Xrotation Yrotation Zrotation
							End Site
							{
								OFFSET 0.000000 32.263779 0.000000
							}
						}
					}
				}
				JOINT LeftShoulder
				{
					OFFSET 6.197800 13.665199 -4.064700
					CHANNELS 3 Xrotation Yrotation Zrotation
					JOINT LeftArm
					{
						OFFSET 7.778100 -0.187103 -1.709300
						CHANNELS 3 Xrotation Yrotation Zrotation
						JOINT LeftForeArm
						{
							OFFSET 22.049376 0.000000 0.000000
							CHANNELS 3 Xrotation Yrotation Zrotation
							JOINT LeftHand
							{
								OFFSET 23.009392 0.000000 0.000000
								CHANNELS 3 Xrotation Yrotation Zrotation
								JOINT LeftHandThumb1
								{
									OFFSET 3.507191 -2.063065 3.133727
									CHANNELS 3 Xrotation Yrotation Zrotation
									JOINT LeftHandThumb2
									{
										OFFSET 3.101337 -1.790558 1.790558
										CHANNELS 3 Xrotation Yrotation Zrotation
										JOINT LeftHandThumb3
										{
											OFFSET 3.058640 -1.765907 1.765906
											CHANNELS 3 Xrotation Yrotation Zrotation
											End Site
											{
												OFFSET -0.415260 3.926476 -0.049563
											}
										}
									}
								}
								JOINT LeftHandIndex1
								{
									OFFSET 11.334419 -0.901459 3.706815
									CHANNELS 3 Xrotation Yrotation Zrotation
									JOINT LeftHandIndex2
									{
										OFFSET 3.283112 0.000000 0.000000
										CHANNELS 3 Xrotation Yrotation Zrotation
										JOINT LeftHandIndex3
										{
											OFFSET 3.323853 0.000000 0.000000
											CHANNELS 3 Xrotation Yrotation Zrotation
											End Site
											{
												OFFSET -1.135597 3.097809 0.402452
											}
										}
									}
								}
								JOINT LeftHandMiddle1
								{
									OFFSET 11.335861 0.000000 0.000000
									CHANNELS 3 Xrotation Yrotation Zrotation
									JOINT LeftHandMiddle2
									{
										OFFSET 3.410492 0.000000 0.000000
										CHANNELS 3 Xrotation Yrotation Zrotation
										JOINT LeftHandMiddle3
										{
											OFFSET 3.312172 0.000000 0.000000
											CHANNELS 3 Xrotation Yrotation Zrotation
											End Site
											{
												OFFSET -1.150200 3.080154 0.400270
											}
										}
									}
								}
								JOINT LeftHandRing1
								{
									OFFSET 11.514786 -0.013176 -3.003090
									CHANNELS 3 Xrotation Yrotation Zrotation
									JOINT LeftHandRing2
									{
										OFFSET 3.053307 0.000000 0.000000
										CHANNELS 3 Xrotation Yrotation Zrotation
										JOINT LeftHandRing3
										{
											OFFSET 3.295807 0.000000 0.000000
											CHANNELS 3 Xrotation Yrotation Zrotation
											End Site
											{
												OFFSET -1.281006 3.013344 0.375733
											}
										}
									}
								}
								JOINT LeftHandPinky1
								{
									OFFSET 10.518692 -0.960396 -5.730441
									CHANNELS 3 Xrotation Yrotation Zrotation
									JOINT LeftHandPinky2
									{
										OFFSET 2.861649 0.000000 0.000000
										CHANNELS 3 Xrotation Yrotation Zrotation
										JOINT LeftHandPinky3
										{
											OFFSET 2.863380 0.000000 0.000000
											CHANNELS 3 Xrotation Yrotation Zrotation
											End Site
											{
												OFFSET -0.843597 2.711159 0.369971
											}
										}
									}
								}
							}
							JOINT LSleeve
							{
								OFFSET 6.676277 -0.344902 -1.011730
								CHANNELS 3 Xrotation Yrotation Zrotation
								End Site
								{
									OFFSET 0.000000 14.885353 0.000000
								}
							}
						}
					}
				}
				JOINT RightShoulder
				{
					OFFSET -6.197800 13.665199 -4.064700
					CHANNELS 3 Xrotation Yrotation Zrotation
					JOINT RightArm
					{
						OFFSET -7.778100 -0.187103 -1.709300
						CHANNELS 3 Xrotation Yrotation Zrotation
						JOINT RightForeArm
						{
							OFFSET -22.049376 0.000000 0.000000
							CHANNELS 3 Xrotation Yrotation Zrotation
							JOINT RightHand
							{
								OFFSET -23.009392 0.000000 0.000000
								CHANNELS 3 Xrotation Yrotation Zrotation
								JOINT RightHandThumb1
								{
									OFFSET -3.507191 -2.063065 3.133727
									CHANNELS 3 Xrotation Yrotation Zrotation
									JOINT RightHandThumb2
									{
										OFFSET -3.101337 -1.790558 1.790558
										CHANNELS 3 Xrotation Yrotation Zrotation
										JOINT RightHandThumb3
										{
											OFFSET -3.058640 -1.765907 1.765906
											CHANNELS 3 Xrotation Yrotation Zrotation
											End Site
											{
												OFFSET 0.415260 3.926476 -0.049563
											}
										}
									}
								}
								JOINT RightHandIndex1
								{
									OFFSET -11.334419 -0.901459 3.706815
									CHANNELS 3 Xrotation Yrotation Zrotation
									JOINT RightHandIndex2
									{
										OFFSET -3.283112 0.000000 0.000000
										CHANNELS 3 Xrotation Yrotation Zrotation
										JOINT RightHandIndex3
										{
											OFFSET -3.323853 0.000000 0.000000
											CHANNELS 3 Xrotation Yrotation Zrotation
											End Site
											{
												OFFSET 1.135597 3.097809 0.402452
											}
										}
									}
								}
								JOINT RightHandMiddle1
								{
									OFFSET -11.335861 0.000000 0.000000
									CHANNELS 3 Xrotation Yrotation Zrotation
									JOINT RightHandMiddle2
									{
										OFFSET -3.410492 0.000000 0.000000
										CHANNELS 3 Xrotation Yrotation Zrotation
										JOINT RightHandMiddle3
										{
											OFFSET -3.312172 0.000000 0.000000
											CHANNELS 3 Xrotation Yrotation Zrotation
											End Site
											{
												OFFSET 1.150200 3.080154 0.400270
											}
										}
									}
								}
								JOINT RightHandRing1
								{
									OFFSET -11.514786 -0.013176 -3.003090
									CHANNELS 3 Xrotation Yrotation Zrotation
									JOINT RightHandRing2
									{
										OFFSET -3.053307 0.000000 0.000000
										CHANNELS 3 Xrotation Yrotation Zrotation
										JOINT RightHandRing3
										{
											OFFSET -3.295807 0.000000 0.000000
											CHANNELS 3 Xrotation Yrotation Zrotation
											End Site
											{
												OFFSET 1.281006 3.013344 0.375733
											}
										}
									}
								}
								JOINT RightHandPinky1
								{
									OFFSET -10.518692 -0.960396 -5.730441
									CHANNELS 3 Xrotation Yrotation Zrotation
									JOINT RightHandPinky2
									{
										OFFSET -2.861649 0.000000 0.000000
										CHANNELS 3 Xrotation Yrotation Zrotation
										JOINT RightHandPinky3
										{
											OFFSET -2.863380 0.000000 0.000000
											CHANNELS 3 Xrotation Yrotation Zrotation
											End Site
											{
												OFFSET 0.843597 2.711159 0.369971
											}
										}
									}
								}
							}
							JOINT RSleeve
							{
								OFFSET -6.676277 -0.344902 -1.011730
								CHANNELS 3 Xrotation Yrotation Zrotation
								End Site
								{
									OFFSET 0.000000 14.885353 0.000000
								}
							}
						}
					}
				}
				JOINT Backpack
				{
					OFFSET 0.000000 -2.471497 36.677502
					CHANNELS 3 Xrotation Yrotation Zrotation
					End Site
					{
						OFFSET 0.000000 20.427315 0.000000
					}
				}
				JOINT Hood
				{
					OFFSET 0.000000 18.754097 -10.431000
					CHANNELS 3 Xrotation Yrotation Zrotation
					JOINT Hood1
					{
						OFFSET 0.000000 -5.011002 -7.685901
						CHANNELS 3 Xrotation Yrotation Zrotation
						End Site
						{
							OFFSET 0.000000 9.175140 0.000000
						}
					}
				}
				JOINT LHoodieString
				{
					OFFSET 5.250500 16.397697 3.089900
					CHANNELS 3 Xrotation Yrotation Zrotation
					JOINT LHoodieString1
					{
						OFFSET 0.257700 -6.364304 3.694600
						CHANNELS 3 Xrotation Yrotation Zrotation
						JOINT LHoodieString2
						{
							OFFSET 0.000000 -9.643799 2.679100
							CHANNELS 3 Xrotation Yrotation Zrotation
							End Site
							{
								OFFSET 0.000000 10.009018 0.000000
							}
						}
					}
				}
				JOINT RHoodieString
				{
					OFFSET -5.250500 16.397697 3.089900
					CHANNELS 3 Xrotation Yrotation Zrotation
					JOINT RHoodieString1
					{
						OFFSET -0.257700 -6.364304 3.694600
						CHANNELS 3 Xrotation Yrotation Zrotation
						JOINT RHoodieString2
						{
							OFFSET 0.000000 -9.643799 2.679100
							CHANNELS 3 Xrotation Yrotation Zrotation
							End Site
							{
								OFFSET 0.000000 10.009018 0.000000
							}
						}
					}
				}
			}
			JOINT LBackpack_Strap
			{
				OFFSET 15.223200 -7.719803 -6.610900
				CHANNELS 3 Xrotation Yrotation Zrotation
				End Site
				{
					OFFSET 0.000000 16.040596 0.000000
				}
			}
			JOINT RBackpack_Strap
			{
				OFFSET -15.223000 -7.719803 -6.610900
				CHANNELS 3 Xrotation Yrotation Zrotation
				End Site
				{
					OFFSET 0.000000 16.040596 0.000000
				}
			}
		}
	}
	JOINT BoyFacialAnim_Joint
	{
		OFFSET 1.000000 -82.208099 -1.550900
		CHANNELS 3 Xrotation Yrotation Zrotation
		End Site
		{
			OFFSET 0.000000 30.012791 0.000000
		}
	}
}
MOTION
Frames: 5
Frame Time: 0.033333
0.161531 5.833740 -6.429565 -82.531600 1.479245 -1.474580 0.000001 -0.000000 -0.000000 -19.103751 9.818231 10.511802 9.941834 -6.030601 -1.037006 8.977367 47.652239 -17.648280 -0.000000 -0.000001 -0.000001 -0.000000 -0.000001 -0.000000 -0.000000 -0.000000 0.000001 -9.235287 -7.976655 -9.211668 -5.541618 8.385408 0.822502 19.589797 -43.879604 32.495465 -0.000000 0.000000 0.000001 -0.000000 0.000000 0.000001 0.000000 -0.000000 0.000000 3.997299 0.117535 0.551756 7.994055 0.233473 0.923828 7.994041 0.233473 0.923827 24.951822 -0.388668 4.004765 9.400387 1.091488 -8.450209 0.000002 -0.000000 -0.000000 0.000002 -0.000000 -0.000000 0.000002 -0.000000 -0.000000 0.631045 -5.560022 0.635453 37.466043 -7.475702 -48.742737 -0.086415 -57.375105 0.076185 44.614461 -1.003465 0.520552 -9.831971 -3.660123 13.230654 1.431918 4.902459 2.088064 -0.000000 -0.000002 -0.000000 -0.104733 -1.598821 -5.043620 0.046678 0.707555 -13.227424 -0.000001 0.000001 -0.000003 0.668743 6.318944 -7.694575 -0.085405 -0.352182 -10.479513 0.000001 0.000000 0.000000 0.079033 8.235325 -7.001298 -0.289125 -2.192386 -19.960642 0.000001 -0.000001 -0.000002 0.034165 14.514587 -1.979560 -0.689713 -5.844848 -26.245475 -0.000000 -0.000000 0.000001 0.000001 -0.000001 -0.000001 0.743979 7.184208 -3.079057 45.523805 4.681120 48.562082 -0.086539 63.398595 -0.081913 37.245903 -0.105387 -2.119283 -9.377039 7.134328 -11.135357 1.331329 -4.697580 -2.076947 -0.000000 0.000001 -0.000001 -1.241370 0.637307 7.546364 0.142477 -1.179505 18.540267 -0.000002 0.000000 0.000004 -1.202458 -1.093223 8.459626 -0.126424 0.412719 14.898034 0.000001 0.000002 0.000000 2.082117 -11.758655 7.954990 -0.396053 2.673808 20.717874 -0.000001 0.000001 0.000001 3.283987 -14.189481 3.913386 -1.616042 8.311103 33.171831 -0.000001 -0.000001 0.000002 0.000001 0.000001 0.000001 -0.000001 0.000000 -0.000000 -0.000001 0.000000 -0.000000 -0.000001 0.000000 -0.000000 -0.000001 0.000000 -0.000000 -0.000001 0.000000 -0.000000 -0.000001 0.000000 0.000000 -0.000001 0.000000 -0.000000 -0.000001 0.000000 -0.000000 -0.000001 0.000000 0.000000 0.000000 0.000000 -0.000000 0.000000 0.000000 -0.000000 0.000001 -0.000000 -0.000000 
0.163014 5.832924 -6.431503 -82.630365 1.525667 -1.531874 0.000000 0.000000 -0.000000 -19.080374 9.751002 10.571236 10.052558 -6.037156 -1.042007 8.963400 47.635464 -17.620546 -0.000000 0.000000 -0.000000 -0.000000 0.000000 -0.000001 0.000000 -0.000000 0.000001 -9.114803 -8.036193 -9.142983 -5.539794 8.415123 0.809522 19.604856 -43.975903 32.494881 0.000000 -0.000000 0.000001 0.000000 -0.000000 0.000001 0.000000 -0.000000 0.000001 4.020717 0.109383 0.571014 8.040996 0.216281 0.950217 8.041014 0.216282 0.950217 24.970144 -0.373742 3.990016 9.363857 1.101398 -8.404380 -0.000001 0.000000 -0.000000 -0.000001 0.000000 -0.000000 -0.000001 0.000000 -0.000000 0.631138 -5.559696 0.635807 37.466863 -7.482872 -48.746281 -0.085854 -57.363993 0.076258 44.605927 -1.008426 0.535676 -9.842034 -3.706148 13.214929 1.461654 4.859379 2.076567 -0.000001 -0.000001 -0.000000 -0.101655 -1.641102 -4.995900 0.046885 0.707785 -13.243125 -0.000001 -0.000001 -0.000000 0.667932 6.347995 -7.613725 -0.085359 -0.351580 -10.471974 0.000001 -0.000001 -0.000000 0.064604 8.210751 -6.830776 -0.289492 -2.193143 -19.970136 0.000001 -0.000001 -0.000001 0.019695 14.556286 -1.912666 -0.689689 -5.844800 -26.245150 0.000002 0.000000 0.000002 0.000002 0.000000 -0.000000 0.744128 7.182865 -3.083551 45.507266 4.688555 48.556781 -0.085812 63.393383 -0.082226 37.253365 -0.109168 -2.106899 -9.357546 7.162844 -11.120305 1.349844 -4.674462 -2.062029 -0.000000 0.000001 -0.000002 -1.240106 0.651468 7.517450 0.142000 -1.178774 18.519897 -0.000000 -0.000001 -0.000000 -1.206651 -1.054304 8.500217 -0.126548 0.413310 14.907812 0.000002 0.000001 0.000002 2.076108 -11.760367 7.946382 -0.396296 2.674460 20.724401 -0.000000 0.000000 0.000000 3.253128 -14.203494 3.865449 -1.615016 8.313527 33.181588 0.000000 -0.000001 -0.000003 0.000000 -0.000000 -0.000001 -0.000001 0.000000 -0.000000 -0.000001 0.000000 -0.000000 -0.000001 0.000000 -0.000000 -0.000001 0.000000 -0.000000 -0.000001 0.000000 -0.000000 -0.000001 0.000000 -0.000000 -0.000001 0.000000 -0.000000 -0.000001 0.000000 -0.000000 -0.000001 0.000000 -0.000000 0.000003 0.000000 -0.000000 0.000003 0.000000 -0.000000 0.000000 0.000000 -0.000000 
0.163048 5.832275 -6.431885 -82.627093 1.518827 -1.532796 0.000001 -0.000000 0.000000 -19.075072 9.755788 10.573490 10.046462 -6.031581 -1.041472 8.950315 47.643185 -17.637524 -0.000000 -0.000001 -0.000000 -0.000000 -0.000001 -0.000000 -0.000000 -0.000001 -0.000000 -9.116316 -8.036307 -9.137652 -5.539525 8.390087 0.808370 19.598202 -44.025432 32.471580 -0.000000 -0.000001 -0.000001 -0.000000 -0.000001 -0.000001 -0.000000 -0.000000 -0.000001 4.024668 0.112575 0.571133 8.048796 0.222715 0.950353 8.048790 0.222715 0.950353 24.999150 -0.355550 3.968624 9.306531 1.113250 -8.344162 -0.000002 -0.000000 0.000000 -0.000002 -0.000000 0.000000 -0.000002 -0.000000 0.000000 0.630852 -5.554622 0.624911 37.450784 -7.485002 -48.725996 -0.085772 -57.368644 0.076277 44.605852 -1.011586 0.538831 -9.799114 -3.711471 13.193198 1.478072 4.835661 2.070226 -0.000000 0.000000 0.000002 -0.102299 -1.673368 -4.982401 0.046926 0.707847 -13.246520 -0.000002 -0.000000 -0.000002 0.665961 6.341119 -7.591415 -0.085365 -0.351792 -10.474168 0.000000 -0.000000 -0.000001 0.067459 8.229523 -6.851393 -0.290204 -2.194612 -19.989016 0.000001 0.000000 -0.000004 0.022994 14.570064 -1.936591 -0.689278 -5.844434 -26.240986 -0.000000 0.000000 0.000003 0.000002 0.000000 0.000001 0.744260 7.182768 -3.086848 45.502307 4.695814 48.557225 -0.085821 63.387885 -0.082241 37.245366 -0.121174 -2.103857 -9.327588 7.209155 -11.099106 1.371678 -4.647192 -2.044472 -0.000001 0.000000 -0.000000 -1.237455 0.677603 7.463148 0.141810 -1.178626 18.515895 -0.000001 0.000000 0.000000 -1.209106 -1.012786 8.515544 -0.126806 0.414385 14.925710 0.000001 0.000001 -0.000002 2.064762 -11.765801 7.910254 -0.396838 2.675879 20.738427 -0.000001 -0.000001 0.000000 3.213887 -14.216582 3.799108 -1.613224 8.316080 33.190430 0.000001 0.000001 0.000000 0.000001 -0.000001 -0.000001 0.000000 -0.000000 -0.000000 0.000000 -0.000000 -0.000000 0.000000 -0.000000 -0.000000 0.000000 -0.000000 -0.000000 0.000000 -0.000000 -0.000000 0.000000 -0.000000 0.000000 0.000000 -0.000000 -0.000000 0.000000 -0.000000 -0.000000 0.000000 -0.000000 0.000000 -0.000000 -0.000000 0.000000 -0.000000 -0.000000 0.000000 0.000001 -0.000000 0.000000 
0.163195 5.831268 -6.432304 -82.620461 1.510013 -1.534373 -0.000001 -0.000000 -0.000000 -19.074309 9.761235 10.575869 10.039941 -6.024298 -1.040751 8.943418 47.654189 -17.652060 0.000000 0.000001 -0.000001 0.000000 0.000001 -0.000001 -0.000000 0.000001 0.000000 -9.147438 -8.030086 -9.135836 -5.491441 8.376453 0.808768 19.565567 -44.062305 32.445601 -0.000001 -0.000000 -0.000001 -0.000001 -0.000000 -0.000001 0.000000 -0.000000 -0.000001 4.028923 0.116208 0.571218 8.057323 0.230068 0.950658 8.057295 0.230068 0.950658 25.045498 -0.336789 3.944435 9.222043 1.125627 -8.275187 0.000000 -0.000000 -0.000000 0.000000 -0.000000 -0.000000 0.000000 -0.000000 -0.000000 0.630413 -5.547695 0.614896 37.429823 -7.491426 -48.703726 -0.085695 -57.371622 0.076324 44.601340 -1.011915 0.538414 -9.813585 -3.713385 13.199005 1.524216 4.768982 2.052416 -0.000000 -0.000000 0.000001 -0.096323 -1.701196 -4.921853 0.046877 0.707810 -13.243033 -0.000001 -0.000001 -0.000002 0.660596 6.315954 -7.545875 -0.085300 -0.350872 -10.463130 0.000001 -0.000001 -0.000000 0.071451 8.266078 -6.870104 -0.290709 -2.195613 -20.002016 -0.000000 -0.000000 -0.000000 0.019739 14.584733 -1.923584 -0.688625 -5.843855 -26.234504 0.000002 0.000000 -0.000000 0.000001 -0.000001 -0.000001 0.744175 7.182089 -3.088261 45.492533 4.699878 48.555835 -0.085933 63.384142 -0.082116 37.240807 -0.135200 -2.102464 -9.336194 7.254795 -11.093923 1.406047 -4.604287 -2.016799 -0.000002 -0.000000 -0.000002 -1.232791 0.698128 7.403695 0.142065 -1.179320 18.535682 -0.000001 0.000000 0.000000 -1.208319 -0.987002 8.510259 -0.127155 0.415702 14.947758 0.000000 0.000001 0.000002 2.052935 -11.766515 7.877277 -0.397708 2.678183 20.761222 -0.000001 0.000001 0.000001 3.200731 -14.223580 3.744667 -1.610659 8.317677 33.192202 0.000001 0.000001 -0.000001 -0.000001 -0.000001 0.000000 0.000000 0.000000 -0.000000 0.000000 0.000000 -0.000000 0.000000 0.000000 -0.000000 0.000000 0.000000 -0.000000 0.000000 0.000000 0.000000 0.000000 -0.000000 -0.000000 0.000000 0.000000 -0.000000 0.000000 0.000000 0.000000 0.000000 -0.000000 -0.000000 -0.000001 -0.000000 -0.000000 -0.000001 -0.000000 -0.000000 -0.000001 -0.000000 -0.000000 
0.163418 5.829994 -6.432816 -82.612470 1.501124 -1.535124 0.000000 -0.000000 0.000000 -19.082751 9.763866 10.576638 10.037832 -6.019402 -1.040142 8.959023 47.668013 -17.654063 -0.000000 0.000001 -0.000000 -0.000000 0.000001 -0.000000 -0.000000 0.000000 -0.000000 -9.174618 -8.025955 -9.133753 -5.465753 8.369850 0.809852 19.561933 -44.076829 32.417078 -0.000000 0.000000 -0.000000 -0.000000 0.000000 -0.000000 -0.000000 -0.000000 -0.000000 4.033743 0.120025 0.570723 8.066865 0.237732 0.949779 8.066897 0.237732 0.949780 25.113072 -0.319686 3.924587 9.107534 1.138032 -8.205935 -0.000001 -0.000000 0.000001 -0.000001 -0.000000 0.000001 -0.000001 -0.000000 0.000001 0.630529 -5.544015 0.624231 37.396532 -7.511512 -48.700205 -0.085672 -57.360072 0.076311 44.598308 -1.014948 0.533592 -9.820197 -3.761201 13.174738 1.554188 4.725638 2.040837 0.000001 0.000001 0.000001 -0.090458 -1.716305 -4.869368 0.046925 0.707854 -13.246734 0.000000 0.000000 -0.000002 0.659074 6.318947 -7.510008 -0.085271 -0.350346 -10.456985 0.000001 -0.000001 0.000002 0.064782 8.264282 -6.782179 -0.290558 -2.195338 -19.998032 0.000000 0.000001 -0.000004 0.002571 14.582276 -1.825151 -0.688940 -5.844141 -26.237683 0.000000 0.000001 -0.000002 -0.000001 0.000000 0.000002 0.744033 7.177456 -3.090108 45.476209 4.710218 48.552113 -0.085997 63.374976 -0.082019 37.235989 -0.148633 -2.103711 -9.364702 7.274053 -11.117334 1.458522 -4.538777 -1.974587 -0.000000 -0.000001 0.000000 -1.225505 0.703174 7.346172 0.142215 -1.179953 18.553808 -0.000000 0.000001 0.000000 -1.205760 -0.971787 8.498283 -0.127563 0.416966 14.968155 0.000000 0.000000 -0.000000 2.042786 -11.765445 7.854342 -0.398870 2.681209 20.791275 0.000001 0.000001 0.000002 3.212441 -14.234043 3.705846 -1.606177 8.316942 33.176694 0.000000 -0.000001 0.000002 0.000002 0.000000 0.000000 0.000000 0.000000 -0.000000 0.000000 0.000000 -0.000000 0.000000 0.000000 -0.000000 0.000000 0.000000 -0.000000 0.000000 0.000000 -0.000000 -0.000001 0.000000 0.000000 0.000000 0.000000 -0.000000 0.000000 0.000000 -0.000000 -0.000001 0.000000 0.000000 0.000001 -0.000000 -0.000000 0.000001 -0.000000 -0.000000 0.000000 -0.000000 0.000000 
